<mxfile host="app.diagrams.net" modified="2024-07-03T02:08:57.961Z" agent="Mozilla/5.0 (Windows NT 10.0; Win64; x64) AppleWebKit/537.36 (KHTML, like Gecko) Chrome/126.0.0.0 Safari/537.36" etag="FK5dtWLTx_KCoV5VgXL9" version="24.6.4" type="device">
  <diagram name="第 1 页" id="OAnjKe7FV2SUl-oPil_y">
    <mxGraphModel dx="2261" dy="738" grid="1" gridSize="10" guides="1" tooltips="1" connect="1" arrows="1" fold="1" page="1" pageScale="1" pageWidth="827" pageHeight="1169" math="0" shadow="0">
      <root>
        <mxCell id="0" />
        <mxCell id="1" parent="0" />
        <mxCell id="1-rJgV8BscUzUUxlbKQE-3" value="" style="edgeStyle=orthogonalEdgeStyle;rounded=0;orthogonalLoop=1;jettySize=auto;html=1;" parent="1" source="1-rJgV8BscUzUUxlbKQE-1" target="1-rJgV8BscUzUUxlbKQE-2" edge="1">
          <mxGeometry relative="1" as="geometry" />
        </mxCell>
        <mxCell id="1-rJgV8BscUzUUxlbKQE-1" value="开始" style="ellipse;whiteSpace=wrap;html=1;" parent="1" vertex="1">
          <mxGeometry x="320" y="70" width="120" height="80" as="geometry" />
        </mxCell>
        <mxCell id="1-rJgV8BscUzUUxlbKQE-5" value="" style="edgeStyle=orthogonalEdgeStyle;rounded=0;orthogonalLoop=1;jettySize=auto;html=1;" parent="1" source="1-rJgV8BscUzUUxlbKQE-2" target="1-rJgV8BscUzUUxlbKQE-4" edge="1">
          <mxGeometry relative="1" as="geometry" />
        </mxCell>
        <mxCell id="1-rJgV8BscUzUUxlbKQE-2" value="获取前端JSON格式数据包含：上下文规则信息，标识数据信息" style="whiteSpace=wrap;html=1;" parent="1" vertex="1">
          <mxGeometry x="320" y="240" width="120" height="60" as="geometry" />
        </mxCell>
        <mxCell id="1-rJgV8BscUzUUxlbKQE-8" value="是" style="edgeStyle=orthogonalEdgeStyle;rounded=0;orthogonalLoop=1;jettySize=auto;html=1;" parent="1" source="1-rJgV8BscUzUUxlbKQE-4" target="1-rJgV8BscUzUUxlbKQE-7" edge="1">
          <mxGeometry relative="1" as="geometry" />
        </mxCell>
        <mxCell id="1-rJgV8BscUzUUxlbKQE-14" value="否" style="edgeStyle=orthogonalEdgeStyle;rounded=0;orthogonalLoop=1;jettySize=auto;html=1;" parent="1" source="1-rJgV8BscUzUUxlbKQE-4" target="1-rJgV8BscUzUUxlbKQE-13" edge="1">
          <mxGeometry relative="1" as="geometry" />
        </mxCell>
        <mxCell id="1-rJgV8BscUzUUxlbKQE-4" value="获取标注信息内容，判断&lt;div&gt;是JSON文本格式&lt;/div&gt;" style="rhombus;whiteSpace=wrap;html=1;" parent="1" vertex="1">
          <mxGeometry x="275" y="380" width="210" height="130" as="geometry" />
        </mxCell>
        <mxCell id="LouTeXeKW3a5DXBsxRZA-2" value="" style="edgeStyle=orthogonalEdgeStyle;rounded=0;orthogonalLoop=1;jettySize=auto;html=1;" edge="1" parent="1" source="1-rJgV8BscUzUUxlbKQE-7" target="LouTeXeKW3a5DXBsxRZA-1">
          <mxGeometry relative="1" as="geometry" />
        </mxCell>
        <mxCell id="1-rJgV8BscUzUUxlbKQE-7" value="根据标注文本信息，找到相应的日志信息位置，递归序列化JSON找出标注文本位置信息" style="whiteSpace=wrap;html=1;" parent="1" vertex="1">
          <mxGeometry x="-20" y="412.5" width="150" height="65" as="geometry" />
        </mxCell>
        <mxCell id="LouTeXeKW3a5DXBsxRZA-5" value="" style="edgeStyle=orthogonalEdgeStyle;rounded=0;orthogonalLoop=1;jettySize=auto;html=1;" edge="1" parent="1" source="1-rJgV8BscUzUUxlbKQE-13" target="LouTeXeKW3a5DXBsxRZA-4">
          <mxGeometry relative="1" as="geometry" />
        </mxCell>
        <mxCell id="1-rJgV8BscUzUUxlbKQE-13" value="标识方式为TEXT文本格式" style="whiteSpace=wrap;html=1;" parent="1" vertex="1">
          <mxGeometry x="320" y="625" width="120" height="60" as="geometry" />
        </mxCell>
        <mxCell id="LouTeXeKW3a5DXBsxRZA-7" value="" style="edgeStyle=orthogonalEdgeStyle;rounded=0;orthogonalLoop=1;jettySize=auto;html=1;" edge="1" parent="1" source="LouTeXeKW3a5DXBsxRZA-1">
          <mxGeometry relative="1" as="geometry">
            <mxPoint x="-175" y="690" as="targetPoint" />
          </mxGeometry>
        </mxCell>
        <mxCell id="LouTeXeKW3a5DXBsxRZA-1" value="生成规则模型信息，识别的标注结果" style="whiteSpace=wrap;html=1;" vertex="1" parent="1">
          <mxGeometry x="-235" y="415" width="120" height="60" as="geometry" />
        </mxCell>
        <mxCell id="LouTeXeKW3a5DXBsxRZA-9" value="" style="edgeStyle=orthogonalEdgeStyle;rounded=0;orthogonalLoop=1;jettySize=auto;html=1;" edge="1" parent="1" source="LouTeXeKW3a5DXBsxRZA-4" target="LouTeXeKW3a5DXBsxRZA-8">
          <mxGeometry relative="1" as="geometry" />
        </mxCell>
        <mxCell id="LouTeXeKW3a5DXBsxRZA-4" value="根据标注文本信息，找到相应的日志信息位置，通过查询标注字符串方式找到索引位置，多个字符可以进行对比，也可以添加前后字符限制" style="whiteSpace=wrap;html=1;" vertex="1" parent="1">
          <mxGeometry x="312.5" y="770" width="135" height="120" as="geometry" />
        </mxCell>
        <mxCell id="LouTeXeKW3a5DXBsxRZA-17" style="edgeStyle=orthogonalEdgeStyle;rounded=0;orthogonalLoop=1;jettySize=auto;html=1;exitX=0;exitY=0.5;exitDx=0;exitDy=0;entryX=1;entryY=0.5;entryDx=0;entryDy=0;" edge="1" parent="1" source="LouTeXeKW3a5DXBsxRZA-8" target="LouTeXeKW3a5DXBsxRZA-15">
          <mxGeometry relative="1" as="geometry" />
        </mxCell>
        <mxCell id="LouTeXeKW3a5DXBsxRZA-8" value="生成规则模型信息、识别的标注结果" style="whiteSpace=wrap;html=1;" vertex="1" parent="1">
          <mxGeometry x="320" y="970" width="120" height="60" as="geometry" />
        </mxCell>
        <mxCell id="LouTeXeKW3a5DXBsxRZA-21" value="" style="edgeStyle=orthogonalEdgeStyle;rounded=0;orthogonalLoop=1;jettySize=auto;html=1;" edge="1" parent="1" source="LouTeXeKW3a5DXBsxRZA-13" target="LouTeXeKW3a5DXBsxRZA-20">
          <mxGeometry relative="1" as="geometry" />
        </mxCell>
        <mxCell id="LouTeXeKW3a5DXBsxRZA-13" value="持久化存储到PKL文件中" style="shape=cylinder3;whiteSpace=wrap;html=1;boundedLbl=1;backgroundOutline=1;size=15;" vertex="1" parent="1">
          <mxGeometry x="-205" y="970" width="60" height="80" as="geometry" />
        </mxCell>
        <mxCell id="LouTeXeKW3a5DXBsxRZA-22" style="edgeStyle=orthogonalEdgeStyle;rounded=0;orthogonalLoop=1;jettySize=auto;html=1;exitX=0;exitY=0.5;exitDx=0;exitDy=0;entryX=0;entryY=0.5;entryDx=0;entryDy=0;" edge="1" parent="1" source="LouTeXeKW3a5DXBsxRZA-15" target="1-rJgV8BscUzUUxlbKQE-2">
          <mxGeometry relative="1" as="geometry" />
        </mxCell>
        <mxCell id="LouTeXeKW3a5DXBsxRZA-23" value="否" style="edgeLabel;html=1;align=center;verticalAlign=middle;resizable=0;points=[];" vertex="1" connectable="0" parent="LouTeXeKW3a5DXBsxRZA-22">
          <mxGeometry x="-0.527" y="-2" relative="1" as="geometry">
            <mxPoint as="offset" />
          </mxGeometry>
        </mxCell>
        <mxCell id="LouTeXeKW3a5DXBsxRZA-24" value="重新标注信息" style="edgeLabel;html=1;align=center;verticalAlign=middle;resizable=0;points=[];" vertex="1" connectable="0" parent="LouTeXeKW3a5DXBsxRZA-22">
          <mxGeometry x="0.4557" relative="1" as="geometry">
            <mxPoint as="offset" />
          </mxGeometry>
        </mxCell>
        <mxCell id="LouTeXeKW3a5DXBsxRZA-15" value="前端接收模型规则，返回的标注结果信息，人工观察结果是否正确" style="rhombus;whiteSpace=wrap;html=1;" vertex="1" parent="1">
          <mxGeometry x="-290" y="690" width="230" height="160" as="geometry" />
        </mxCell>
        <mxCell id="LouTeXeKW3a5DXBsxRZA-18" style="edgeStyle=orthogonalEdgeStyle;rounded=0;orthogonalLoop=1;jettySize=auto;html=1;exitX=0.5;exitY=1;exitDx=0;exitDy=0;entryX=0.5;entryY=0;entryDx=0;entryDy=0;entryPerimeter=0;" edge="1" parent="1" source="LouTeXeKW3a5DXBsxRZA-15" target="LouTeXeKW3a5DXBsxRZA-13">
          <mxGeometry relative="1" as="geometry" />
        </mxCell>
        <mxCell id="LouTeXeKW3a5DXBsxRZA-19" value="是" style="edgeLabel;html=1;align=center;verticalAlign=middle;resizable=0;points=[];" vertex="1" connectable="0" parent="LouTeXeKW3a5DXBsxRZA-18">
          <mxGeometry x="-0.2667" y="4" relative="1" as="geometry">
            <mxPoint as="offset" />
          </mxGeometry>
        </mxCell>
        <mxCell id="LouTeXeKW3a5DXBsxRZA-20" value="结束" style="ellipse;whiteSpace=wrap;html=1;" vertex="1" parent="1">
          <mxGeometry x="-232.5" y="1140" width="115" height="80" as="geometry" />
        </mxCell>
      </root>
    </mxGraphModel>
  </diagram>
</mxfile>
